<svg width="512" height="512" viewBox="0 0 512 512" fill="none" xmlns="http://www.w3.org/2000/svg">
<path d="M0 225.4C0 145.671 0 105.807 15.7621 75.4636C29.0447 49.8935 49.8935 29.0447 75.4636 15.7621C105.807 0 145.671 0 225.4 0H286.6C366.329 0 406.193 0 436.536 15.7621C462.106 29.0447 482.955 49.8935 496.238 75.4636C512 105.807 512 145.671 512 225.4V286.6C512 366.329 512 406.193 496.238 436.536C482.955 462.106 462.106 482.955 436.536 496.238C406.193 512 366.329 512 286.6 512H225.4C145.671 512 105.807 512 75.4636 496.238C49.8935 482.955 29.0447 462.106 15.7621 436.536C0 406.193 0 366.329 0 286.6V225.4Z" fill="white"/>
<path d="M383.786 360.058C383.786 355.348 378.112 352.969 374.753 356.269L351.778 378.845L350.102 380.492C346.806 383.731 346.158 388.807 348.536 392.77L350.399 395.875C354.522 402.744 364.644 402.22 368.034 394.961L369.475 391.878L383.287 362.305C383.616 361.602 383.786 360.834 383.786 360.058Z" fill="black"/>
<path d="M128.214 360.061C128.214 355.36 133.884 352.99 137.229 356.293L160.073 378.845L165.073 383.782C168.937 387.596 169.051 393.796 165.331 397.75L162.028 401.261C157.185 406.409 148.675 405.044 145.684 398.641L142.507 391.839L128.711 362.302C128.384 361.601 128.214 360.836 128.214 360.061Z" fill="black"/>
<path d="M351.778 378.845H160.073L165.073 383.782C168.937 387.596 169.051 393.796 165.331 397.75L162.028 401.261C157.185 406.409 148.675 405.044 145.684 398.641L142.507 391.839C142.638 392.238 142.794 392.636 142.976 393.031L148.858 405.794C150.491 409.338 154.037 411.609 157.94 411.609H354.06C357.963 411.609 361.509 409.338 363.142 405.794L369.024 393.031C369.2 392.649 369.35 392.264 369.475 391.878L368.034 394.961C364.644 402.22 354.522 402.744 350.399 395.875L348.536 392.77C346.158 388.807 346.806 383.731 350.102 380.492L351.778 378.845Z" fill="black"/>
<path d="M390 215.541C390 275.304 349.591 325.781 294.19 341.96C282.087 345.495 269.269 347.393 256 347.393C181.994 347.393 122 288.361 122 215.541C122 142.721 181.994 83.6889 256 83.6889C330.006 83.6889 390 142.721 390 215.541Z" fill="white"/>
<path fill-rule="evenodd" clip-rule="evenodd" d="M147 215.541C147 274.174 195.419 322.393 256 322.393C266.875 322.393 277.334 320.839 287.182 317.963C332.439 304.746 365 263.664 365 215.541C365 156.907 316.582 108.689 256 108.689C195.419 108.689 147 156.907 147 215.541ZM294.19 341.96C349.591 325.781 390 275.304 390 215.541C390 142.721 330.006 83.6889 256 83.6889C181.994 83.6889 122 142.721 122 215.541C122 288.361 181.994 347.393 256 347.393C269.269 347.393 282.087 345.495 294.19 341.96Z" fill="black"/>
<path d="M211.78 332.615C211.78 329.853 214.018 327.615 216.78 327.615H295.22C297.981 327.615 300.22 329.853 300.22 332.615V360.852C300.22 363.613 297.981 365.852 295.22 365.852H216.78C214.018 365.852 211.78 363.613 211.78 360.852V332.615Z" fill="black"/>
<path d="M237.24 61C237.24 58.2386 239.479 56 242.24 56H268.42C271.181 56 273.42 58.2386 273.42 61V334.481C273.42 337.243 271.181 339.481 268.42 339.481H242.24C239.479 339.481 237.24 337.243 237.24 334.481V61Z" fill="white"/>
</svg>
